<mxfile host="app.diagrams.net" modified="2024-06-02T05:45:30.695Z" agent="Mozilla/5.0 (X11; Linux x86_64; rv:126.0) Gecko/20100101 Firefox/126.0" etag="_Yo8tLeE3LDcByq_DyBv" version="24.4.13" type="device">
  <diagram id="t25Kp6jmq_1cI3zwCiK2" name="Page-1">
    <mxGraphModel dx="1562" dy="856" grid="1" gridSize="10" guides="1" tooltips="1" connect="1" arrows="1" fold="1" page="1" pageScale="1" pageWidth="1000" pageHeight="1000" math="0" shadow="0">
      <root>
        <mxCell id="0" />
        <mxCell id="1" parent="0" />
        <mxCell id="T0KytU28zX8Ys8UfOtSf-32" value="saqi:Contributor" style="graphMlID=n4;shape=rect;rounded=1;arcsize=30;fillColor=#ffff00;strokeColor=#000000;strokeWidth=1.0;fontSize=11;" parent="1" vertex="1">
          <mxGeometry x="270" y="220" width="110" height="24" as="geometry" />
        </mxCell>
        <mxCell id="T0KytU28zX8Ys8UfOtSf-33" value="Prefixes" style="graphMlID=n0;shape=swimlane;startSize=20;fillColor=#b7b69e;strokeColor=#000000;strokeWidth=1.0;align=right;spacingRight=10;fontStyle=1;fontSize=11;" parent="1" vertex="1">
          <mxGeometry x="20" width="610" height="80" as="geometry" />
        </mxCell>
        <mxCell id="T0KytU28zX8Ys8UfOtSf-34" value="&lt;b&gt;saqi:&lt;/b&gt;&lt;b&gt;&lt;br&gt;&lt;/b&gt;&lt;b&gt;rdfs:&lt;br&gt;&lt;/b&gt;&lt;b style=&quot;border-color: var(--border-color);&quot;&gt;sosa:&lt;/b&gt;&lt;b&gt;&lt;br&gt;&lt;br&gt;&lt;/b&gt;" style="text;html=1;align=center;verticalAlign=middle;resizable=0;points=[];autosize=1;fontFamily=Courier New;" parent="T0KytU28zX8Ys8UfOtSf-33" vertex="1">
          <mxGeometry x="129.99645243734972" y="19" width="60" height="70" as="geometry" />
        </mxCell>
        <mxCell id="T0KytU28zX8Ys8UfOtSf-35" value="https://saqi-er24.netlify.app/saqi&lt;br&gt;https://www.w3.org/TR/rdf-schema&lt;br&gt;http://www.w3.org/ns/sosa" style="text;html=1;align=left;verticalAlign=middle;resizable=0;points=[];autosize=1;fontFamily=Courier New;rounded=1;glass=0;" parent="T0KytU28zX8Ys8UfOtSf-33" vertex="1">
          <mxGeometry x="182" y="18" width="270" height="60" as="geometry" />
        </mxCell>
        <mxCell id="T0KytU28zX8Ys8UfOtSf-36" value="saqi:IndirectContributor" style="graphMlID=n4;shape=rect;rounded=1;arcsize=30;fillColor=#ffff00;strokeColor=#000000;strokeWidth=1.0;fontSize=11;" parent="1" vertex="1">
          <mxGeometry x="245" y="318.5" width="160" height="24" as="geometry" />
        </mxCell>
        <mxCell id="T0KytU28zX8Ys8UfOtSf-37" value="saqi:DirectContributor" style="graphMlID=n4;shape=rect;rounded=1;arcsize=30;fillColor=#ffff00;strokeColor=#000000;strokeWidth=1.0;fontSize=11;" parent="1" vertex="1">
          <mxGeometry x="488.75" y="220" width="132.5" height="24" as="geometry" />
        </mxCell>
        <mxCell id="T0KytU28zX8Ys8UfOtSf-38" value="" style="endArrow=none;html=1;textDirection=ltr;fontSize=11;strokeWidth=1;exitX=0.5;exitY=1;exitDx=0;exitDy=0;entryX=0.5;entryY=0;entryDx=0;entryDy=0;startArrow=classic;startFill=1;endFill=0;" parent="1" source="T0KytU28zX8Ys8UfOtSf-32" target="T0KytU28zX8Ys8UfOtSf-36" edge="1">
          <mxGeometry width="50" height="50" relative="1" as="geometry">
            <mxPoint x="405" y="358" as="sourcePoint" />
            <mxPoint x="552.95" y="358" as="targetPoint" />
          </mxGeometry>
        </mxCell>
        <mxCell id="T0KytU28zX8Ys8UfOtSf-39" value="rdfs:subClassOf" style="text;html=1;align=center;verticalAlign=middle;resizable=0;points=[];labelBackgroundColor=#ffffff;rotation=0;" parent="T0KytU28zX8Ys8UfOtSf-38" vertex="1" connectable="0">
          <mxGeometry x="-0.2211" relative="1" as="geometry">
            <mxPoint x="-5" y="10" as="offset" />
          </mxGeometry>
        </mxCell>
        <mxCell id="T0KytU28zX8Ys8UfOtSf-40" value="" style="endArrow=none;html=1;textDirection=ltr;fontSize=11;strokeWidth=1;exitX=1;exitY=0.5;exitDx=0;exitDy=0;startArrow=classic;startFill=1;endFill=0;entryX=0;entryY=0.5;entryDx=0;entryDy=0;" parent="1" source="T0KytU28zX8Ys8UfOtSf-32" target="T0KytU28zX8Ys8UfOtSf-37" edge="1">
          <mxGeometry width="50" height="50" relative="1" as="geometry">
            <mxPoint x="330" y="154" as="sourcePoint" />
            <mxPoint x="395" y="168" as="targetPoint" />
          </mxGeometry>
        </mxCell>
        <mxCell id="T0KytU28zX8Ys8UfOtSf-41" value="rdfs:subClassOf" style="text;html=1;align=center;verticalAlign=middle;resizable=0;points=[];labelBackgroundColor=#ffffff;rotation=0;" parent="T0KytU28zX8Ys8UfOtSf-40" vertex="1" connectable="0">
          <mxGeometry x="-0.2211" relative="1" as="geometry">
            <mxPoint x="14" y="-12" as="offset" />
          </mxGeometry>
        </mxCell>
        <mxCell id="T0KytU28zX8Ys8UfOtSf-42" value="saqi:Carrier" style="graphMlID=n4;shape=rect;rounded=1;arcsize=30;fillColor=#ffff00;strokeColor=#000000;strokeWidth=1.0;fontSize=11;" parent="1" vertex="1">
          <mxGeometry x="280" y="438" width="90" height="24" as="geometry" />
        </mxCell>
        <mxCell id="T0KytU28zX8Ys8UfOtSf-43" value="" style="endArrow=none;html=1;textDirection=ltr;fontSize=11;strokeWidth=1;exitX=0.5;exitY=1;exitDx=0;exitDy=0;entryX=0.5;entryY=0;entryDx=0;entryDy=0;startArrow=classic;startFill=1;endFill=0;" parent="1" source="T0KytU28zX8Ys8UfOtSf-36" target="T0KytU28zX8Ys8UfOtSf-42" edge="1">
          <mxGeometry width="50" height="50" relative="1" as="geometry">
            <mxPoint x="230" y="335.9999999999999" as="sourcePoint" />
            <mxPoint x="345" y="384" as="targetPoint" />
          </mxGeometry>
        </mxCell>
        <mxCell id="T0KytU28zX8Ys8UfOtSf-44" value="rdfs:subClassOf" style="text;html=1;align=center;verticalAlign=middle;resizable=0;points=[];labelBackgroundColor=#ffffff;rotation=0;" parent="T0KytU28zX8Ys8UfOtSf-43" vertex="1" connectable="0">
          <mxGeometry x="-0.2211" relative="1" as="geometry">
            <mxPoint x="5" y="3" as="offset" />
          </mxGeometry>
        </mxCell>
        <mxCell id="T0KytU28zX8Ys8UfOtSf-45" value="saqi:Pollutant" style="graphMlID=n4;shape=rect;rounded=1;arcsize=30;fillColor=#ffff00;strokeColor=#000000;strokeWidth=1.0;fontSize=11;" parent="1" vertex="1">
          <mxGeometry x="505" y="328" width="100" height="24" as="geometry" />
        </mxCell>
        <mxCell id="T0KytU28zX8Ys8UfOtSf-46" value="" style="endArrow=classic;html=1;textDirection=ltr;fontSize=11;strokeWidth=1;exitX=0.5;exitY=1;exitDx=0;exitDy=0;entryX=0.5;entryY=0;entryDx=0;entryDy=0;" parent="1" source="T0KytU28zX8Ys8UfOtSf-37" target="T0KytU28zX8Ys8UfOtSf-45" edge="1">
          <mxGeometry width="50" height="50" relative="1" as="geometry">
            <mxPoint x="555" y="184" as="sourcePoint" />
            <mxPoint x="670" y="280" as="targetPoint" />
          </mxGeometry>
        </mxCell>
        <mxCell id="T0KytU28zX8Ys8UfOtSf-47" value="rdfs:subClassOf" style="text;html=1;align=center;verticalAlign=middle;resizable=0;points=[];labelBackgroundColor=#ffffff;rotation=0;" parent="T0KytU28zX8Ys8UfOtSf-46" vertex="1" connectable="0">
          <mxGeometry x="-0.2211" relative="1" as="geometry">
            <mxPoint y="5" as="offset" />
          </mxGeometry>
        </mxCell>
        <mxCell id="T0KytU28zX8Ys8UfOtSf-72" value="saqi:SocioEconomicFactor" style="graphMlID=n4;shape=rect;rounded=1;arcsize=30;fillColor=#ffff00;strokeColor=#000000;strokeWidth=1.0;fontSize=11;" parent="1" vertex="1">
          <mxGeometry x="25" y="438" width="155" height="24" as="geometry" />
        </mxCell>
        <mxCell id="T0KytU28zX8Ys8UfOtSf-73" value="" style="endArrow=none;html=1;textDirection=ltr;fontSize=11;strokeWidth=1;exitX=0.25;exitY=1;exitDx=0;exitDy=0;entryX=1;entryY=0.5;entryDx=0;entryDy=0;startArrow=classic;startFill=1;endFill=0;" parent="1" source="T0KytU28zX8Ys8UfOtSf-36" target="T0KytU28zX8Ys8UfOtSf-72" edge="1">
          <mxGeometry width="50" height="50" relative="1" as="geometry">
            <mxPoint x="115" y="292" as="sourcePoint" />
            <mxPoint x="215" y="394" as="targetPoint" />
          </mxGeometry>
        </mxCell>
        <mxCell id="T0KytU28zX8Ys8UfOtSf-74" value="rdfs:subClassOf" style="text;html=1;align=center;verticalAlign=middle;resizable=0;points=[];labelBackgroundColor=#ffffff;rotation=0;" parent="T0KytU28zX8Ys8UfOtSf-73" vertex="1" connectable="0">
          <mxGeometry x="-0.2211" relative="1" as="geometry">
            <mxPoint x="-15" y="5" as="offset" />
          </mxGeometry>
        </mxCell>
        <mxCell id="T0KytU28zX8Ys8UfOtSf-75" value="saqi:Weather" style="graphMlID=n4;shape=rect;rounded=1;arcsize=30;fillColor=#ffff00;strokeColor=#000000;strokeWidth=1.0;fontSize=11;" parent="1" vertex="1">
          <mxGeometry x="20" y="318.5" width="120" height="24" as="geometry" />
        </mxCell>
        <mxCell id="T0KytU28zX8Ys8UfOtSf-76" value="" style="endArrow=none;html=1;textDirection=ltr;fontSize=11;strokeWidth=1;entryX=1;entryY=0.5;entryDx=0;entryDy=0;exitX=0;exitY=0.5;exitDx=0;exitDy=0;startArrow=classic;startFill=1;endFill=0;" parent="1" source="T0KytU28zX8Ys8UfOtSf-36" target="T0KytU28zX8Ys8UfOtSf-75" edge="1">
          <mxGeometry width="50" height="50" relative="1" as="geometry">
            <mxPoint x="215" y="288" as="sourcePoint" />
            <mxPoint x="105" y="394" as="targetPoint" />
          </mxGeometry>
        </mxCell>
        <mxCell id="T0KytU28zX8Ys8UfOtSf-77" value="rdfs:subClassOf" style="text;html=1;align=center;verticalAlign=middle;resizable=0;points=[];labelBackgroundColor=#ffffff;rotation=0;" parent="T0KytU28zX8Ys8UfOtSf-76" vertex="1" connectable="0">
          <mxGeometry x="-0.2211" relative="1" as="geometry">
            <mxPoint x="-13" y="-12" as="offset" />
          </mxGeometry>
        </mxCell>
        <mxCell id="T0KytU28zX8Ys8UfOtSf-140" value="" style="graphMlID=e0;rounded=0;endArrow=block;strokeColor=#000080;strokeWidth=1.0;startArrow=oval;startFill=1;endFill=1;fontSize=11;fontColor=#000080;entryX=0.5;entryY=0;entryDx=0;entryDy=0;exitX=0.5;exitY=1;exitDx=0;exitDy=0;" parent="1" source="T0KytU28zX8Ys8UfOtSf-45" target="T0KytU28zX8Ys8UfOtSf-133" edge="1">
          <mxGeometry relative="1" as="geometry">
            <mxPoint x="615" y="170" as="sourcePoint" />
            <mxPoint x="785.0000000000002" y="168" as="targetPoint" />
          </mxGeometry>
        </mxCell>
        <mxCell id="T0KytU28zX8Ys8UfOtSf-141" value="&lt;span style=&quot;color: rgb(0 , 0 , 128) ; font-family: &amp;quot;dialog&amp;quot; ; font-size: 11px ; background-color: rgb(248 , 249 , 250)&quot;&gt;saqi:hasPrescribedStandard&lt;/span&gt;" style="text;html=1;align=center;verticalAlign=middle;resizable=0;points=[];labelBackgroundColor=#ffffff;fontSize=11;" parent="T0KytU28zX8Ys8UfOtSf-140" vertex="1" connectable="0">
          <mxGeometry x="-0.0174" y="2" relative="1" as="geometry">
            <mxPoint x="5" y="16" as="offset" />
          </mxGeometry>
        </mxCell>
        <mxCell id="T0KytU28zX8Ys8UfOtSf-142" value="saqi:Pollution" style="graphMlID=n4;shape=rect;rounded=1;arcsize=30;fillColor=#ffff00;strokeColor=#000000;strokeWidth=1.0;fontSize=11;" parent="1" vertex="1">
          <mxGeometry x="40.94" y="110" width="110" height="24" as="geometry" />
        </mxCell>
        <mxCell id="T0KytU28zX8Ys8UfOtSf-143" value="" style="graphMlID=e0;rounded=0;endArrow=block;strokeColor=#000080;strokeWidth=1.0;startArrow=oval;startFill=1;endFill=1;fontSize=11;fontColor=#000080;exitX=0.5;exitY=1;exitDx=0;exitDy=0;entryX=0.5;entryY=0;entryDx=0;entryDy=0;" parent="1" source="T0KytU28zX8Ys8UfOtSf-142" target="T0KytU28zX8Ys8UfOtSf-32" edge="1">
          <mxGeometry relative="1" as="geometry">
            <mxPoint x="115" y="200" as="sourcePoint" />
            <mxPoint x="227.5" y="144" as="targetPoint" />
            <Array as="points">
              <mxPoint x="96" y="190" />
              <mxPoint x="325" y="190" />
            </Array>
          </mxGeometry>
        </mxCell>
        <mxCell id="T0KytU28zX8Ys8UfOtSf-144" value="&lt;span style=&quot;color: rgb(0 , 0 , 128) ; font-family: &amp;quot;dialog&amp;quot; ; font-size: 11px ; background-color: rgb(248 , 249 , 250)&quot;&gt;saqi:hasContributor&lt;/span&gt;" style="text;html=1;align=center;verticalAlign=middle;resizable=0;points=[];labelBackgroundColor=#ffffff;fontSize=11;" parent="T0KytU28zX8Ys8UfOtSf-143" vertex="1" connectable="0">
          <mxGeometry x="-0.0174" y="2" relative="1" as="geometry">
            <mxPoint y="-8" as="offset" />
          </mxGeometry>
        </mxCell>
        <mxCell id="T0KytU28zX8Ys8UfOtSf-145" value="saqi:NaturalResourcesPollution" style="graphMlID=n4;shape=rect;rounded=1;arcsize=30;fillColor=#ffff00;strokeColor=#000000;strokeWidth=1.0;fontSize=11;" parent="1" vertex="1">
          <mxGeometry x="404.75" y="138" width="190" height="24" as="geometry" />
        </mxCell>
        <mxCell id="T0KytU28zX8Ys8UfOtSf-146" value="saqi:NonNaturalResourcesPollution" style="graphMlID=n4;shape=rect;rounded=1;arcsize=30;fillColor=#ffff00;strokeColor=#000000;strokeWidth=1.0;fontSize=11;" parent="1" vertex="1">
          <mxGeometry x="391" y="88" width="217.5" height="24" as="geometry" />
        </mxCell>
        <mxCell id="0jtO1-yvGRoyAblTp0NV-17" value="" style="graphMlID=e0;rounded=0;endArrow=block;strokeColor=#000080;strokeWidth=1.0;startArrow=oval;startFill=1;endFill=1;fontSize=11;fontColor=#000080;entryX=0;entryY=1;entryDx=0;entryDy=0;exitX=1;exitY=0;exitDx=0;exitDy=0;" parent="1" source="T0KytU28zX8Ys8UfOtSf-42" target="T0KytU28zX8Ys8UfOtSf-45" edge="1">
          <mxGeometry relative="1" as="geometry">
            <mxPoint x="305" y="312" as="sourcePoint" />
            <mxPoint x="405" y="312" as="targetPoint" />
          </mxGeometry>
        </mxCell>
        <mxCell id="0jtO1-yvGRoyAblTp0NV-18" value="&lt;span style=&quot;color: rgb(0 , 0 , 128) ; font-family: &amp;quot;dialog&amp;quot; ; font-size: 11px ; background-color: rgb(248 , 249 , 250)&quot;&gt;saqi:carriesPollutant&lt;/span&gt;" style="text;html=1;align=center;verticalAlign=middle;resizable=0;points=[];labelBackgroundColor=#ffffff;fontSize=11;" parent="0jtO1-yvGRoyAblTp0NV-17" vertex="1" connectable="0">
          <mxGeometry x="-0.0174" y="2" relative="1" as="geometry">
            <mxPoint x="20" y="-8" as="offset" />
          </mxGeometry>
        </mxCell>
        <mxCell id="T0KytU28zX8Ys8UfOtSf-133" value="saqi:PrescribedStandardForPollutant" style="graphMlID=n4;shape=rect;rounded=1;arcsize=30;fillColor=#ffff00;strokeColor=#000000;strokeWidth=1.0;fontSize=11;" parent="1" vertex="1">
          <mxGeometry x="450" y="438" width="210" height="24" as="geometry" />
        </mxCell>
        <mxCell id="aVqAN3fPpgZAdef6FJ5D-2" value="sosa:FeatureOfInterest" style="graphMlID=n4;shape=rect;rounded=1;arcsize=30;fillColor=#ffff00;strokeColor=#000000;strokeWidth=1.0;fontSize=11;" parent="1" vertex="1">
          <mxGeometry x="25.01" y="220" width="141.87" height="24" as="geometry" />
        </mxCell>
        <mxCell id="aVqAN3fPpgZAdef6FJ5D-4" value="" style="endArrow=classic;html=1;textDirection=ltr;fontSize=11;strokeWidth=1;exitX=0;exitY=0.5;exitDx=0;exitDy=0;startArrow=none;startFill=0;endFill=1;entryX=1;entryY=0.5;entryDx=0;entryDy=0;" parent="1" source="T0KytU28zX8Ys8UfOtSf-32" target="aVqAN3fPpgZAdef6FJ5D-2" edge="1">
          <mxGeometry width="50" height="50" relative="1" as="geometry">
            <mxPoint x="390" y="250.5" as="sourcePoint" />
            <mxPoint x="499" y="250.5" as="targetPoint" />
          </mxGeometry>
        </mxCell>
        <mxCell id="aVqAN3fPpgZAdef6FJ5D-5" value="rdfs:subClassOf" style="text;html=1;align=center;verticalAlign=middle;resizable=0;points=[];labelBackgroundColor=#ffffff;rotation=0;" parent="aVqAN3fPpgZAdef6FJ5D-4" vertex="1" connectable="0">
          <mxGeometry x="-0.2211" relative="1" as="geometry">
            <mxPoint x="-10" y="12" as="offset" />
          </mxGeometry>
        </mxCell>
        <mxCell id="aVqAN3fPpgZAdef6FJ5D-6" value="" style="endArrow=none;html=1;textDirection=ltr;fontSize=11;strokeWidth=1;exitX=1;exitY=0.5;exitDx=0;exitDy=0;startArrow=classic;startFill=1;endFill=0;entryX=0;entryY=0.5;entryDx=0;entryDy=0;rounded=0;" parent="1" source="T0KytU28zX8Ys8UfOtSf-142" target="T0KytU28zX8Ys8UfOtSf-146" edge="1">
          <mxGeometry width="50" height="50" relative="1" as="geometry">
            <mxPoint x="190" y="129.99999999999997" as="sourcePoint" />
            <mxPoint x="299" y="129.99999999999997" as="targetPoint" />
            <Array as="points">
              <mxPoint x="210" y="122" />
              <mxPoint x="210" y="100" />
            </Array>
          </mxGeometry>
        </mxCell>
        <mxCell id="aVqAN3fPpgZAdef6FJ5D-7" value="rdfs:subClassOf" style="text;html=1;align=center;verticalAlign=middle;resizable=0;points=[];labelBackgroundColor=#ffffff;rotation=0;" parent="aVqAN3fPpgZAdef6FJ5D-6" vertex="1" connectable="0">
          <mxGeometry x="-0.25" relative="1" as="geometry">
            <mxPoint x="79" as="offset" />
          </mxGeometry>
        </mxCell>
        <mxCell id="aVqAN3fPpgZAdef6FJ5D-8" value="" style="endArrow=none;html=1;textDirection=ltr;fontSize=11;strokeWidth=1;exitX=1;exitY=0.5;exitDx=0;exitDy=0;startArrow=classic;startFill=1;endFill=0;entryX=0;entryY=0.5;entryDx=0;entryDy=0;rounded=0;" parent="1" source="T0KytU28zX8Ys8UfOtSf-142" target="T0KytU28zX8Ys8UfOtSf-145" edge="1">
          <mxGeometry width="50" height="50" relative="1" as="geometry">
            <mxPoint x="161" y="154" as="sourcePoint" />
            <mxPoint x="360" y="130" as="targetPoint" />
            <Array as="points">
              <mxPoint x="210" y="122" />
              <mxPoint x="210" y="150" />
            </Array>
          </mxGeometry>
        </mxCell>
        <mxCell id="aVqAN3fPpgZAdef6FJ5D-9" value="rdfs:subClassOf" style="text;html=1;align=center;verticalAlign=middle;resizable=0;points=[];labelBackgroundColor=#ffffff;rotation=0;" parent="aVqAN3fPpgZAdef6FJ5D-8" vertex="1" connectable="0">
          <mxGeometry x="-0.2211" relative="1" as="geometry">
            <mxPoint x="73" as="offset" />
          </mxGeometry>
        </mxCell>
      </root>
    </mxGraphModel>
  </diagram>
</mxfile>
